<?xml version="1.0" encoding="UTF-8"?>
<!DOCTYPE svg
PUBLIC "-//W3C//DTD SVG 1.1//EN"
       "http://www.w3.org/Graphics/SVG/1.1/DTD/svg11.dtd">
<svg viewBox="20 17 482 515" width="462px" height="498px" xmlns="http://www.w3.org/2000/svg" version="1.1">
   <line x1="289" y1="224" x2="279" y2="224" style="stroke:#333;stroke-width:1;"/>
   <line x1="142" y1="254" x2="132" y2="254" style="stroke:#333;stroke-width:1;"/>
   <line x1="279" y1="224" x2="142" y2="254" style="stroke:#333;stroke-width:1;"/>
   <line x1="281.5" y1="224" x2="285.03553390593" y2="227.53553390593" style="stroke:#333;stroke-width:2;"/>
   <line x1="281.5" y1="224" x2="285.03553390593" y2="220.46446609407" style="stroke:#333;stroke-width:2;"/>
   <line x1="137" y1="254" x2="140.53553390593" y2="257.53553390593" style="stroke:#333;stroke-width:2;"/>
   <line x1="137" y1="254" x2="140.53553390593" y2="250.46446609407" style="stroke:#333;stroke-width:2;"/>
   <line x1="132" y1="274" x2="142" y2="274" style="stroke:#333;stroke-width:1;"/>
   <line x1="360" y1="350" x2="370" y2="350" style="stroke:#333;stroke-width:1;"/>
   <line x1="142" y1="274" x2="360" y2="350" style="stroke:#333;stroke-width:1;"/>
   <line x1="139.5" y1="274" x2="135.96446609407" y2="277.53553390593" style="stroke:#333;stroke-width:2;"/>
   <line x1="139.5" y1="274" x2="135.96446609407" y2="270.46446609407" style="stroke:#333;stroke-width:2;"/>
   <line x1="365" y1="350" x2="361.46446609407" y2="353.53553390593" style="stroke:#333;stroke-width:2;"/>
   <line x1="365" y1="350" x2="361.46446609407" y2="346.46446609407" style="stroke:#333;stroke-width:2;"/>
   <line x1="132" y1="314" x2="142" y2="314" style="stroke:#333;stroke-width:1;"/>
   <line x1="190" y1="410" x2="200" y2="410" style="stroke:#333;stroke-width:1;"/>
   <line x1="142" y1="314" x2="190" y2="410" style="stroke:#333;stroke-width:1;"/>
   <line x1="139.5" y1="314" x2="135.96446609407" y2="317.53553390593" style="stroke:#333;stroke-width:2;"/>
   <line x1="139.5" y1="314" x2="135.96446609407" y2="310.46446609407" style="stroke:#333;stroke-width:2;"/>
   <line x1="195" y1="410" x2="191.46446609407" y2="413.53553390593" style="stroke:#333;stroke-width:2;"/>
   <line x1="195" y1="410" x2="191.46446609407" y2="406.46446609407" style="stroke:#333;stroke-width:2;"/>
   <rect width="97" height="20" x="289" y="174" style="fill:#007;stroke:black;"/>
   <text width="97" height="20" x="294" y="188" style="fill:#fff;" font-family="Arial" font-size="16px"> campañas</text>
   <rect width="97" height="20" x="289" y="194" style="fill:none;stroke:black;"/>
   <text width="97" height="20" x="294" y="208" style="fill:black;" font-family="Arial" font-size="16px">id</text>
   <rect width="97" height="20" x="289" y="214" style="fill:none;stroke:black;"/>
   <text width="97" height="20" x="294" y="228" style="fill:black;" font-family="Arial" font-size="16px">idPedidos</text>
   <rect width="97" height="20" x="289" y="234" style="fill:none;stroke:black;"/>
   <text width="97" height="20" x="294" y="248" style="fill:black;" font-family="Arial" font-size="16px">Nro_pedidos</text>
   <rect width="97" height="20" x="289" y="254" style="fill:none;stroke:black;"/>
   <text width="97" height="20" x="294" y="268" style="fill:black;" font-family="Arial" font-size="16px">Nro_clientes</text>
   <rect width="97" height="20" x="289" y="274" style="fill:none;stroke:black;"/>
   <text width="97" height="20" x="294" y="288" style="fill:black;" font-family="Arial" font-size="16px">Total</text>
   <rect width="97" height="20" x="370" y="320" style="fill:#007;stroke:black;"/>
   <text width="97" height="20" x="375" y="334" style="fill:#fff;" font-family="Arial" font-size="16px"> clientes</text>
   <rect width="97" height="20" x="370" y="340" style="fill:none;stroke:black;"/>
   <text width="97" height="20" x="375" y="354" style="fill:black;" font-family="Arial" font-size="16px">id</text>
   <rect width="97" height="20" x="370" y="360" style="fill:none;stroke:black;"/>
   <text width="97" height="20" x="375" y="374" style="fill:black;" font-family="Arial" font-size="16px">Nombres</text>
   <rect width="97" height="20" x="370" y="380" style="fill:none;stroke:black;"/>
   <text width="97" height="20" x="375" y="394" style="fill:black;" font-family="Arial" font-size="16px">Apellidos</text>
   <rect width="97" height="20" x="370" y="400" style="fill:none;stroke:black;"/>
   <text width="97" height="20" x="375" y="414" style="fill:black;" font-family="Arial" font-size="16px">Telefono</text>
   <rect width="97" height="20" x="370" y="420" style="fill:none;stroke:black;"/>
   <text width="97" height="20" x="375" y="434" style="fill:black;" font-family="Arial" font-size="16px">Actitud</text>
   <rect width="97" height="20" x="247" y="32" style="fill:#007;stroke:black;"/>
   <text width="97" height="20" x="252" y="46" style="fill:#fff;" font-family="Arial" font-size="16px"> consultoras</text>
   <rect width="97" height="20" x="247" y="52" style="fill:none;stroke:black;"/>
   <text width="97" height="20" x="252" y="66" style="fill:black;" font-family="Arial" font-size="16px">id</text>
   <rect width="97" height="20" x="247" y="72" style="fill:none;stroke:black;"/>
   <text width="97" height="20" x="252" y="86" style="fill:black;" font-family="Arial" font-size="16px">Nombres</text>
   <rect width="97" height="20" x="247" y="92" style="fill:none;stroke:black;"/>
   <text width="97" height="20" x="252" y="106" style="fill:black;" font-family="Arial" font-size="16px">Apellidos</text>
   <rect width="97" height="20" x="247" y="112" style="fill:none;stroke:black;"/>
   <text width="97" height="20" x="252" y="126" style="fill:black;" font-family="Arial" font-size="16px">Email</text>
   <rect width="97" height="20" x="247" y="132" style="fill:none;stroke:black;"/>
   <text width="97" height="20" x="252" y="146" style="fill:black;" font-family="Arial" font-size="16px">Telefono</text>
   <rect width="97" height="20" x="35" y="224" style="fill:#007;stroke:black;"/>
   <text width="97" height="20" x="40" y="238" style="fill:#fff;" font-family="Arial" font-size="16px"> pedidos</text>
   <rect width="97" height="20" x="35" y="244" style="fill:none;stroke:black;"/>
   <text width="97" height="20" x="40" y="258" style="fill:black;" font-family="Arial" font-size="16px">id</text>
   <rect width="97" height="20" x="35" y="264" style="fill:none;stroke:black;"/>
   <text width="97" height="20" x="40" y="278" style="fill:black;" font-family="Arial" font-size="16px">idClientes</text>
   <rect width="97" height="20" x="35" y="284" style="fill:none;stroke:black;"/>
   <text width="97" height="20" x="40" y="298" style="fill:black;" font-family="Arial" font-size="16px">Fecha</text>
   <rect width="97" height="20" x="35" y="304" style="fill:none;stroke:black;"/>
   <text width="97" height="20" x="40" y="318" style="fill:black;" font-family="Arial" font-size="16px">idProducto</text>
   <rect width="97" height="20" x="200" y="380" style="fill:#007;stroke:black;"/>
   <text width="97" height="20" x="205" y="394" style="fill:#fff;" font-family="Arial" font-size="16px"> productos</text>
   <rect width="97" height="20" x="200" y="400" style="fill:none;stroke:black;"/>
   <text width="97" height="20" x="205" y="414" style="fill:black;" font-family="Arial" font-size="16px">id</text>
   <rect width="97" height="20" x="200" y="420" style="fill:none;stroke:black;"/>
   <text width="97" height="20" x="205" y="434" style="fill:black;" font-family="Arial" font-size="16px">Producto</text>
   <rect width="97" height="20" x="200" y="440" style="fill:none;stroke:black;"/>
   <text width="97" height="20" x="205" y="454" style="fill:black;" font-family="Arial" font-size="16px">Code</text>
   <rect width="97" height="20" x="200" y="460" style="fill:none;stroke:black;"/>
   <text width="97" height="20" x="205" y="474" style="fill:black;" font-family="Arial" font-size="16px">Precio</text>
   <rect width="97" height="20" x="200" y="480" style="fill:none;stroke:black;"/>
   <text width="97" height="20" x="205" y="494" style="fill:black;" font-family="Arial" font-size="16px">Cantidad</text>
   <rect width="97" height="20" x="42" y="42" style="fill:#007;stroke:black;"/>
   <text width="97" height="20" x="47" y="56" style="fill:#fff;" font-family="Arial" font-size="16px"> usuarios</text>
   <rect width="97" height="20" x="42" y="62" style="fill:none;stroke:black;"/>
   <text width="97" height="20" x="47" y="76" style="fill:black;" font-family="Arial" font-size="16px">id</text>
   <rect width="97" height="20" x="42" y="82" style="fill:none;stroke:black;"/>
   <text width="97" height="20" x="47" y="96" style="fill:black;" font-family="Arial" font-size="16px">Nombres</text>
   <rect width="97" height="20" x="42" y="102" style="fill:none;stroke:black;"/>
   <text width="97" height="20" x="47" y="116" style="fill:black;" font-family="Arial" font-size="16px">Username</text>
   <rect width="97" height="20" x="42" y="122" style="fill:none;stroke:black;"/>
   <text width="97" height="20" x="47" y="136" style="fill:black;" font-family="Arial" font-size="16px">Email</text>
   <rect width="97" height="20" x="42" y="142" style="fill:none;stroke:black;"/>
   <text width="97" height="20" x="47" y="156" style="fill:black;" font-family="Arial" font-size="16px">Pass</text>
</svg>
