<svg xmlns="http://www.w3.org/2000/svg" xmlns:lucid="lucid" width="669.92" height="595.59"><g lucid:page-tab-id="0_0" stroke="#000" stroke-opacity="0"><path d="M21.26 522.8h627.4c.63 0 1.26-.55 1.26-1.1 0-1.1-.63-1.67-1.26-1.67H21.26c-.63 0-1.26.56-1.26 1.67 0 .55.63 1.1 1.26 1.1z" stroke-width="1.01" fill="#d1d3d4"/><path d="M214.02 308.9H73.54V549.5h140.48V308.9z" stroke-width="1.01" fill="#fff"/><path d="M73.54 550.6h140.48c.63 0 1.26-.57 1.26-1.12V308.9c0-1.1-.63-1.66-1.26-1.66H73.54c-.63 0-1.26.56-1.26 1.67V549.5c0 .55.63 1.1 1.26 1.1zm139.22-2.8H74.8V310.03h137.96z" stroke-width="1.01" fill="#231f20"/><path d="M599.53 308.9H459.7V549.5h139.83V308.9z" stroke-width="1.01" fill="#fff"/><path d="M459.7 550.6h139.83c.63 0 1.26-.57 1.26-1.12V308.9c0-1.1-.64-1.66-1.27-1.66H459.7c-.64 0-1.27.56-1.27 1.67V549.5c0 .55.63 1.1 1.26 1.1zm138.57-2.8H460.94V310.03h137.33zM187.56 238.9l-27.72 55.56h74.96l-47.24-55.56z" stroke-width="1.01" fill="#231f20"/><path d="M159.84 295.57h74.96c.63 0 1.26 0 1.26-.55v-1.1l-47.24-55.57c-.63-.56-.63-.56-1.26-.56s-.63 0-1.26.55l-27.72 55.56v1.12c.63.55 1.26 1.1 1.26.55zm72.44-2.22h-70.55l26.46-52.22z" stroke-width="1.01" fill="#231f20"/><path d="M400.47 294.46H222.2l-64.88-95h168.82l74.33 95z" stroke-width="1.01" fill="#231f20"/><path d="M222.2 295.57h178.9c.63 0 .63-.55.63-1.1v-.56l-74.96-95c0-.56-.63-.56-.63-.56H157.32c-.63 0-.63.56-.63.56-.64.56-.64 1.1 0 1.67l64.24 95c.63 0 .63.56 1.26 0zm175.75-2.22H222.83l-63-92.23h165.68z" stroke-width="1.01" fill="#231f20"/><path d="M320.47 208.9l53.55 68.9h-132.3l-50.38-68.9h129.13z" stroke-width="1.01" fill="#fff"/><path d="M241.73 279.46h132.3c.62 0 .62-.55 1.25-1.1v-1.12l-53.55-68.9c0-.55-.63-.55-1.26-.55H191.34c-.63 0-.63 0-.63.55-.62.55-.62.55 0 1.1l49.77 69.46s.63.56 1.26.56zm129.77-2.78H242.36L193.86 210h125.98z" stroke-width="1.01" fill="#231f20"/><path d="M282.68 265.57c.63 0 1.26-.55 1.26-1.1 6.3-18.9 15.12-39.46 18.26-40 3.78 0 28.98 20.54 51.03 40.55.63.55 1.26.55 1.9 0 .62-.56 0-1.12 0-1.67-7.57-7.22-46-41.12-52.93-41.12-6.3.56-17.63 32.23-20.78 41.67 0 .56 0 1.12.63 1.67h.63z" stroke-width="1.01" fill="#d1d3d4"/><path d="M243 267.8c.62 0 .62 0 1.25-.56 3.78-15.56 10.08-31.67 13.23-32.78 2.52-.56 16.38 11.67 27.1 23.33h1.88v-1.67c-5.67-6.12-24.57-25.56-29.6-23.9-5.68 1.67-13.87 28.9-15.13 34.45 0 .56 0 1.1.63 1.1z" stroke-width="1.01" fill="#d1d3d4"/><path d="M203.94 246.68c2.52 0 5.04-1.67 5.04-3.33 0-1.67-2.52-3.34-5.04-3.34-3.15 0-5.67 1.68-5.67 3.35 0 1.66 2.52 3.33 5.67 3.33zm0-6.1c2.52 0 4.4 1.1 4.4 2.77 0 1.66-1.88 2.78-4.4 2.78-3.15 0-5.04-1.12-5.04-2.78 0-1.67 1.9-2.78 5.04-2.78zM182.52 218.9h10.7v-.55h-10.7c-.63 0-.63 0-.63.55h.62z" stroke-width="1.01" fill="#a7a9ac"/><path d="M222.2 295.57h.63c.63-.55.63-1.1.63-1.66l-34.64-47.22c-.63-.55-1.26-1.1-1.9-.55-.62.55-.62 1.1 0 1.66l34.02 47.77c.63 0 .63.56 1.26 0z" stroke-width="1.01" fill="#fff"/><path d="M282.68 226.68c3.15 0 5.67-2.78 5.67-5.56 0-2.77-2.52-5.55-5.67-5.55s-5.67 2.78-5.67 5.55c0 2.78 2.53 5.56 5.68 5.56zm0-8.33c1.9 0 3.15 1.1 3.15 2.77s-1.26 2.78-3.15 2.78c-1.9 0-3.15-1.1-3.15-2.78 0-1.66 1.26-2.77 3.15-2.77z" stroke-width="1.01" fill="#d1d3d4"/><path d="M618.43 296.68H67.87v23.34h550.56v-23.34z" stroke-width="1.01" fill="#fff"/><path d="M67.87 321.13h550.56c.63 0 1.26-.56 1.26-1.1v-23.35c0-.55-.64-1.1-1.27-1.1H67.87c-.63 0-1.26.55-1.26 1.1v23.34c0 .55.64 1.1 1.27 1.1zm549.3-2.22H69.13v-21.1h548.04z" stroke-width="1.01" fill="#231f20"/><path d="M411.18 422.8c-.63 2.23 30.24 112.8 30.24 112.8l-42.84 6.66-51.02-152.8z" stroke-width="1.01" fill="#fff"/><path d="M398.58 543.37l43.47-6.67.63-.56v-1.1c-11.97-42.8-29.6-108.35-30.24-111.68 0-.56 0-1.1-.63-1.1l-63.6-33.9h-1.27c-.63.55-.63 1.1-.63 1.66l51.02 152.8c0 .55.63.55 1.26.55zm41.58-8.9l-40.95 6.67-49.75-148.9 60.47 31.67c1.9 7.24 11.34 43.9 30.24 110.58z" stroke-width="1.01" fill="#231f20"/><path d="M443.94 530.6l6.93 20.54-103.3 8.34c5.03-10.56 12.6-17.22 23.3-21.1 10.7-3.9 22.67-8.35 22.67-8.35l5.04 12.23z" stroke-width="1.01" fill="#231f20"/><path d="M347.56 560.6l103.3-8.34c.64 0 1.27-.56 1.27-1.12l-6.93-21.1c0-.56-.63-.56-1.26-.56l-44.73 11.66-5.03-11.66c0-.56-.63-1.1-1.26-.56-.62 0-11.96 4.45-22.66 8.33-10.7 3.9-18.9 11.12-23.94 21.67v1.1c.63.57.63.57 1.26.57zm101.42-10.57l-99.53 7.78c5.04-8.88 12.6-15 22.05-18.32 8.8-3.34 18.26-6.67 21.4-7.78l4.42 11.1c.63.57.63 1.12 1.26.57l44.73-11.12zM516.38 424.47l7.56 116.67s24.56.56 30.86 5l11.34 23.9h-7.56s-5.04-14.45-9.45-16.12l-33.38-2.22s-13.23 5-15.75 13.9c-1.26 7.2-.63 8.88-.63 8.88h-8.82c0-4.45.63-7.78 1.9-12.22 1.25-4.45 8.18-10.56 8.18-10.56s-14.5.56-18.9.56c-5.04 0-10.08 8.9-10.08 8.9h-8.82s9.45-16.13 15.75-17.24l22.05-4.44 4.4-108.34z" stroke-width="1.01" fill="#231f20"/><path d="M490.55 575.6h8.2c.62 0 1.25 0 1.25-.57v-1.1c0-2.78.63-5 1.26-7.78 1.9-7.78 13.23-12.78 14.5-13.34 8.18 0 28.96.57 32.74 2.23 3.15 1.1 6.93 10.56 8.2 15.56.62.55.62 1.1 1.25 1.1h8.2c.62 0 1.25-.55 1.25-1.1v-.57c-.63-.55-5.67-20-11.97-24.44-5.67-4.46-25.82-5.57-30.23-5.57l-7.56-115.56c0-.56 0-.56-.63-1.1h-1.25l-11.34 6.66c-.62.55-.62.55-.62 1.1l-4.4 107.8c-3.8.55-15.76 2.77-21.43 3.88-6.3 1.12-15.12 16.12-16.38 17.8v1.1c0 .56.63.56 1.26.56h8.82c.63 0 1.26 0 1.26-.56 1.9-3.33 5.68-8.33 8.83-8.33h15.75c-3.15 2.22-5.04 5-6.3 8.9-1.26 3.88-1.9 7.76-1.9 12.2 0 .56.64 1.12 1.27 1.12zm6.93-2.23h-5.67c0-3.9.64-7.22 1.27-10.56 1.9-4.43 8.2-10 8.2-10 0-.54.62-1.1 0-1.66 0-.55-.64-.55-1.27-.55h-18.27c-5.04 0-9.45 6.66-10.7 9.43h-6.3c3.14-5.55 10.07-14.44 13.85-15 6.3-1.1 22.05-3.9 22.05-3.9.63-.54 1.26-.54 1.26-1.1l4.4-108.34 9.45-5 6.93 114.44c0 .56.63 1.12 1.26 1.12 6.3.55 25.2 1.66 30.23 5 4.4 3.33 8.2 15.55 10.08 21.66h-5.04c-1.25-3.33-5.03-14.44-10.07-16.1-4.4-1.68-32.12-2.8-33.38-2.8-.63.57-14.5 5.57-16.38 15-1.26 2.8-1.26 5.57-1.9 8.35zm26.46-32.23z" stroke-width="1.01" fill="#231f20"/><path d="M375.28 350.02s-97 5.56-103.3 19.45L311 535.6s-47.87 16.66-39.68 20l85.67-3.34-37.16-141.68 96.38-6.1z" stroke-width="1.01" fill="#fff"/><path d="M283.3 557.8c22.68 0 67.4-3.88 73.7-4.43.64 0 .64 0 .64-.56.63 0 .63-.54.63-.54l-36.54-140 94.5-6.68c.62 0 1.25 0 1.25-.56v-1.1l-40.94-54.45c-.63-.56-.63-.56-1.26-.56 0 0-24.57 1.12-49.14 4.45-51.02 6.12-54.17 13.34-55.43 15.56-5.66 13.35 34.02 151.13 38.43 166.13-12.6 4.45-40.3 14.45-40.3 19.45 0 1.1.62 2.22 1.88 2.22 4.42 1.1 8.2 1.67 12.6 1.1zm71.82-6.66c-22.68 2.23-77.48 6.12-83.78 3.34 1.9-2.78 22.05-11.1 40.3-17.23.64-.55.64-1.1.64-1.66-12.6-42.24-44.1-155.02-39.05-165.58 5.04-11.1 74.33-17.22 102.05-18.33l38.42 51.66-93.86 6.1c-.63 0-.63.56-.63.56-.62.56-.62.56-.62 1.12zm-83.78 3.34z" stroke-width="1.01" fill="#231f20"/><path d="M408.66 263.35s-50.4 62.78-71.8 60.56c-21.43-1.66-82.53-78.33-82.53-78.33-10.7-13.33-23.3-30-15.12-48.34.64-1.66 1.9-3.9 3.8-3.33.62 0 1.25 0 2.5.56l6.3 4.44c0-2.22 2.53-3.33 4.42-2.78 1.9.56 3.15 1.67 3.78 3.34 7.56 10.55 11.97 20 11.34 32.22l71.8 36.67 28.36-31.1" stroke-width="1.01" fill="#fff"/><path d="M338.1 325.57c22.06 0 69.3-58.9 71.2-61.67.62-.55.62-1.1 0-1.66-.64 0-1.27 0-1.9.55 0 .55-48.5 60-69.3 60h-.62c-20.8-1.67-81.26-77.23-81.9-78.34-11.33-13.34-23.3-29.45-15.74-46.67.63-.57 1.9-2.8 3.15-2.8.62 0 1.25 0 1.88.57l6.3 4.44c.63 0 1.9 0 1.9-.54v-.56c0-.56.62-1.1.62-1.1.63-.57 1.26-.57 1.9-.57 1.88.56 3.14 1.67 3.77 3.34 5.67 8.33 11.34 18.33 11.34 31.1-.62.57 0 1.12.64 1.12l71.18 36.66c.63.56 1.26.56 1.9 0l28.34-31.67v-1.68c-.63-.55-1.26-.55-1.9 0l-27.7 30.56-70.56-35.56c.63-13.33-5.04-23.33-11.34-32.22-1.26-2.22-2.52-3.33-5.04-3.9-1.26-.54-2.52-.54-3.78.57l-1.26 1.1-5.04-3.33c-1.26-.55-1.9-1.1-3.15-1.1-1.9 0-3.8 1.66-5.05 4.44-8.82 20 6.93 39.44 15.75 49.45 2.52 3.33 61.73 77.22 83.15 78.9z" stroke-width="1.01" fill="#231f20"/><path d="M572.44 252.8s25.83 58.33 16.38 64.44c-9.45 6.67-68.03 0-68.03 0l5.03-75.56" stroke-width="1.01" fill="#fff"/><path d="M566.77 321.13c10.08 0 19.53-.56 22.68-2.78 1.26-1.1 6.93-4.44-4.4-36.1-5.05-15-11.35-30-11.35-30-.63-.57-1.26-1.12-1.9-.57-.62 0-.62.56-.62 1.1v.57c10.08 22.22 23.3 58.9 17 62.78-7.55 5-49.12 1.67-66.13 0l5.04-74.45c0-.55-.64-1.1-1.27-1.1s-1.26.55-1.26 1.1l-5.04 75.56c0 .56.63 1.1 1.26 1.1 1.25.57 25.8 2.8 45.97 2.8z" stroke-width="1.01" fill="#231f20"/><path d="M551.65 351.7s12.6 28.32-1.26 45.55l-199.7 20-13.22-67.23 77.48-10.56 5.04-23.33z" stroke-width="1.01" fill="#fff"/><path d="M350.7 418.36s47.25-.56 95.13-3.34c64.25-3.33 100.15-9.44 105.82-16.66 13.86-18.34 1.26-46.12 1.26-47.23-.62 0-.62-.55-1.25-.55L420 315.02h-.63c-.63.55-.63.55-.63 1.1l-4.4 22.23-77.5 10.56s-.62 0-.62.57v1.1l13.23 66.68c0 .55.63 1.1 1.26 1.1zm199.7-65.56c1.88 3.9 11.33 28.33-.64 43.9C539.06 410 416.22 415 351.34 416.13l-12.6-65 76.22-10.56c.63 0 1.26 0 1.26-.56l4.4-22.22z" stroke-width="1.01" fill="#231f20"/><path d="M474.8 115.56c1.9-1.1 3.78-2.22 5.04-4.44 1.9-2.78 3.15-5 3.78-8.34 6.93-23.9 6.93-54.44-14.5-71.1-13.2-10-28.96-12.8-44.7-7.8-10.1 3.34-18.9 17.8-23.95 26.68-3.78 7.78-6.3 15.55-10.7 22.78-4.42 7.22-11.34 13.33-20.16 13.9 6.94 3.88 14.5 4.43 22.05 1.1-3.15 4.44-8.82 6.66-14.48 5.55 5.03 3.88 11.96 3.88 18.26 2.22 5.67-1.12 11.97-3.34 18.27-2.23 10.08 1.1 16.38 8.33 23.94 13.33 9.45 6.66 26.45 15 37.16 8.33z" stroke-width="1.01" fill="#fff"/><path d="M465.98 119.45c3.15 0 6.3-1.1 9.45-2.78 2.52-1.1 3.78-2.78 5.67-4.44 1.9-3.34 3.15-6.1 3.78-9.45 3.15-11.66 11.97-51.67-15.12-72.22-13.22-10.56-29.6-13.34-45.98-8.34-10.7 3.9-19.53 18.9-23.94 27.78-1.9 2.78-3.15 5.56-4.4 8.9-1.9 5-3.8 8.88-6.3 13.33-2.53 3.88-9.45 12.77-19.53 13.33-.62 0-.62.56-.62 1.1-.63.57 0 1.12.63 1.12 5.05 3.34 11.34 3.9 17.64 2.78-3.15 2.22-6.3 2.78-9.44 1.67-.63 0-1.26.55-1.9 1.1 0 .56 0 1.12.64 1.12 4.4 3.33 10.7 4.44 18.9 2.78 1.25 0 3.14-.56 4.4-1.1 5.04-1.13 8.82-1.68 13.86-1.13 6.93.56 11.97 4.45 17.64 8.9 1.9 1.1 3.78 2.77 5.67 3.88 5.68 4.45 17.65 11.67 28.98 11.67zM438.9 22.78c11.34 0 20.8 3.33 29.6 10 25.2 19.44 17 58.34 13.86 69.45-.63 3.33-1.9 5.55-3.78 8.33-1.26 1.67-2.52 2.78-4.4 3.9-11.35 7.2-30.24-4.45-35.9-8.34-1.9-1.1-3.8-2.78-5.68-4.45-5.67-3.9-11.34-8.33-18.9-9.44-5.04 0-9.45.55-14.5 1.66-1.25.55-3.14.55-4.4 1.1-4.4 1.12-8.2 1.12-11.97 0 3.78-.55 7.56-2.77 10.08-6.1v-1.67c-.62 0-1.25-.56-1.88 0-5.67 2.22-11.33 2.22-17 0 7.55-2.23 13.22-6.67 17-13.34 2.52-5 4.4-8.9 6.93-13.9 1.26-3.33 2.52-6.1 3.78-8.9 3.15-6.65 12.6-22.77 23.3-26.1 4.42-1.67 8.83-2.22 13.87-2.22z" stroke-width="1.01" fill="#231f20"/><path d="M408.66 98.34s-6.3 21.1-3.15 23.9c3.8 2.77 10.72-1.68 10.72-1.68" stroke-width="1.01" fill="#fff"/><path d="M408.66 124.45c3.15-.55 5.67-1.1 8.2-2.78.62-.55 1.25-1.1.62-1.66-.63-.55-1.26-1.1-1.9-.55-1.88 1.1-6.92 3.9-9.44 1.67-1.26-1.1.63-12.78 3.78-22.23 0-.56 0-1.67-.63-1.67-.64 0-1.27 0-1.9.55-1.26 5.56-6.3 22.23-2.52 25.56 1.26.56 2.52 1.1 3.78 1.1z" stroke-width="1.01" fill="#231f20"/><path d="M404.88 74.45c-5.67 8.33 0 20.55 2.52 28.33 3.15 11.67 6.93 23.34 10.7 35 2.53 7.23 21.43 1.67 24.58-1.1l5.04 30 40.3-13.9-12.6-36.66s-13.22 3.9-25.18-8.9l-19.53-46.1s-20.15 5.55-25.82 13.33z" stroke-width="1.01" fill="#fff"/><path d="M447.72 167.8h.63l40.3-13.9.64-.56v-1.1l-12.6-36.68c-.64-.55-1.27-.55-1.9-.55-.63 0-12.6 3.34-23.3-8.88-11.34-12.23-19.53-45-19.53-45.56 0 0 0-.56-.63-.56h-.63c-1.25 0-20.78 5.56-26.45 13.9-5.67 7.2-1.9 17.22.63 25 .63 1.66.63 3.33 1.26 4.44 3.15 11.67 6.93 23.33 10.7 35 1.27 2.22 3.16 3.9 5.68 3.9 6.93.55 13.23-.57 19.53-3.34l4.4 27.78c0 .55.64.55.64 1.1h.62zm39.05-16.13L448.97 165l-5.03-28.88c0-.56-.63-1.1-1.26-.56h-.63c-1.9 2.23-12.6 5.56-18.9 4.45-1.9-.55-3.15-1.66-3.78-2.77-3.78-11.1-7.56-22.78-10.7-34.45-.64-1.66-1.27-2.77-1.9-4.44-1.9-7.78-5.04-16.67-.63-23.34 4.4-6.1 19.53-11.1 23.94-12.22 1.26 6.1 8.82 33.34 19.53 45 10.1 11.12 21.42 10.56 25.2 10z" stroke-width="1.01" fill="#231f20"/><path d="M416.22 128.9s10.08 2.77 12.6-7.78" stroke-width="1.01" fill="#fff"/><path d="M419.37 130.56c1.9 0 3.78-.55 5.67-1.66 3.15-1.67 4.4-4.45 5.04-7.23 0-1.1-.63-1.66-1.26-1.66s-1.26.56-1.26 1.12c0 2.22-1.26 4.44-3.78 5.55-2.52 1.67-4.4 1.67-7.56 1.1-.63 0-1.26 0-1.26 1.13 0 .55 0 1.1.63 1.1 1.25.56 2.5.56 3.77.56z" stroke-width="1.01" fill="#231f20"/><path d="M433.23 99.45c-.63-2.78 0-6.1 1.26-8.9.62-2.2 1.25-4.43 2.5-6.66 1.27-1.67 3.16-3.34 5.68-3.34 2.52 0 4.4.55 5.67 2.22 1.26 1.67 2.52 3.34 3.15 5.56 3.15 8.9 1.26 18.33-5.04 25.55v-1.12" stroke-width="1.01" fill="#fff"/><path d="M446.46 115l.63-.55c6.92-7.22 8.8-17.22 5.66-26.67-.63-2.22-1.9-3.9-3.78-5.55-1.26-2.23-3.78-2.78-6.3-2.78s-5.04 1.66-6.93 3.9c-1.26 2.2-1.9 4.43-2.52 6.65-1.26 3.34-1.9 6.67-1.26 10 .63.56 1.26 1.12 1.9.56.62 0 .62-.55.62-1.1-.64-3.34 0-5.57 1.25-8.34.63-2.23 1.26-4.45 2.52-6.12.63-2.22 2.52-2.77 4.4-3.33 1.9 0 3.8.56 5.05 2.22 1.26 1.1 1.9 2.77 2.52 4.44 2.52 8.33 1.26 16.67-3.78 23.33-.63 0-.63 0-.63.56l-.63.55c0 .56 0 1.67.63 1.67 0 .56 0 .56.63.56z" stroke-width="1.01" fill="#231f20"/><path d="M411.18 87.78c0-2.22-1.26-3.9-2.52-3.9-.63.57-1.26 2.24-.63 5 .63 2.24 1.9 3.9 2.52 3.9 1.26-.55 1.26-2.78.63-5z" stroke-width=".22" fill="#231f20"/><path d="M442.68 136.67c5.67-3.9 10.08-7.22 15.12-11.66 0 0 2.5 21.67-11.97 26.12z" stroke-width="1.01" fill="#231f20"/><path d="M445.83 152.23c0 .56 0 .56 0 0 15.74-5 13.23-26.1 13.23-27.22l-.63-.55c-.63-.55-1.26-.55-1.26 0-5.04 4.45-9.45 7.78-15.12 11.1-.63.57-.63.57-.63 1.12l3.15 15s0 .56.63.56h.63zm10.7-24.45c0 5-.62 17.78-10.07 21.67l-2.52-12.22c4.4-3.33 8.2-6.1 12.6-9.45z" stroke-width="1.01" fill="#231f20"/><path d="M559.2 361.13s-2.5-149.45-24.55-183.9c0 0-80.63-42.22-108.35-21.67L411.8 332.8s88.2 28.33 147.4 28.33z" stroke-width="1.01" fill="#68e1fd"/><path d="M445.83 146.67c-15.75 6.67-28.35 13.9-40.95 24.45-19.53 15.56-59.84 84.45-59.84 84.45l53.54 32.22 47.88-58.9zM511.34 156.12s27.72 3.33 42.83 33.9c7.56 16.66 28.35 70.55 28.35 70.55l-61.73 6.67z" stroke-width="1.01" fill="#68e1fd"/><path d="M402.36 283.9c.63 0 .63 0 1.26-.55l47.25-64.45c.63-.55.63-1.67 0-1.67-.63-.55-1.26-.55-1.9 0l-47.87 65c0 .56 0 1.12.63 1.68h.63zM260.63 210.57l-11.97-36.67-3.78 1.1 7.56 36.12s5.04 5.56 8.2-.55z" stroke-width="1.01" fill="#231f20"/><path d="M256.85 214.46h.63c1.9 0 3.15-1.1 3.78-3.34v-.55l-11.97-37.23c0-.55-.64-1.1-1.27-.55l-3.78 1.1c-.63 0-.63.55-.63 1.1l7.56 36.68v.55c1.9 1.67 3.15 2.23 5.67 2.23zm2.52-3.9c-.63 1.12-1.26 1.67-1.9 1.67-1.88 0-3.14-.55-3.77-1.66l-7.56-35h1.26z" stroke-width="1.01" fill="#231f20"/><path d="M485.5 127.23c22.06-5 46-1.67 64.26 12.22 7.56 5.56 12.6 12.78 15.75 21.67 3.16 9.45 1.27 18.9-4.4 26.67-17 20-53.54 20-76.85 13.32-15.12-4.44-61.73-26.67-48.5-47.78 8.82-15.55 33.38-22.78 49.76-26.1z" stroke-width="1.01" fill="#68e1fd"/><path d="M513.23 202.8c15.12-.57 28.34-3.9 41.57-11.68.63-.55.63-1.1 0-1.66 0-.56-.63-1.12-1.26-.56-.63 0-30.86 18.9-59.2 8.33-13.87-5.55-22.06-14.44-29.62-23.33-8.8-10-17-18.9-31.5-20.56-.62 0-1.25.56-1.25 1.1 0 .57.63 1.12 1.26 1.68 13.23 1.1 20.8 9.44 29.6 19.45 7.56 8.33 16.38 18.33 30.87 23.9 6.3 2.2 12.6 3.32 19.53 3.32zM556.7 307.8c.62 0 1.25-.56 1.25-1.67-1.9-38.34-10.08-93.9-10.08-94.45 0-.56-.63-1.1-1.26-1.1-.62 0-.62.54-.62 1.1 0 .55 7.56 56.1 9.45 95 0 .56.63 1.12 1.26 1.12zM369.6 549.48h-51.65s-5.67-12.23-17.64-13.9c0 0-47.23 20-40.3 23.9 6.93 3.9 113.4 3.9 113.4 3.9z" stroke-width="1.01" fill="#231f20"/><path d="M362.68 564.48h10.7c.64 0 .64 0 1.27-.56v-1.1l-3.78-13.34c0-.56-.63-1.1-1.26-1.1H318.6c-1.26-2.8-7.56-12.8-18.27-13.9 0-.56-.6-.56-.6 0-10.1 3.9-41.6 17.78-41.6 23.9 0 .54 0 1.65 1.27 2.2 5.67 3.34 74.96 3.9 103.3 3.9zm8.82-2.78c-42.2.56-106.46-.55-110.87-3.33 0-2.78 20.16-13.34 39.68-21.67 11.35 1.67 16.4 13.33 16.4 13.33 0 .56.62 1.1 1.25 1.1h51.03zM408.66 429.47c-32.75-6.67-54.8-22.22-42.2-42.78 13.23-21.12 106.45-7.8 124.72-22.8 18.27-15.55 11.97-97.77 31.5-111.66 20.15-13.9 105.82-28.34 115.27-10.56 10.08 17.78 0 146.68-27.7 175.57-27.73 28.33-169.46 18.9-201.6 12.22z" stroke-width="1.01" fill="#231f20"/><path d="M505.67 437.8h5.67c37.16 0 84.4-3.9 100.16-20 27.08-28.33 37.8-157.23 27.7-176.67-1.88-3.34-5.66-5.56-11.96-7.23-26.45-6.1-88.18 5-105.2 17.23-10.7 7.22-13.85 33.33-17 57.78-3.15 22.8-6.3 46.12-14.5 53.34-8.18 7.23-33.37 8.34-57.3 8.9-29.62 1.66-60.48 2.77-67.4 14.44-4.42 6.67-5.05 13.33-2.53 19.44 5.05 11.12 20.8 20.56 45.36 25.56 17 3.9 57.95 7.22 97 7.22zm102.68-203.34c6.3 0 11.96.55 18.26 2.22 5.68 1.1 8.83 3.33 10.72 5.56 9.45 17.78-1.26 146.12-27.7 173.9-27.73 28.33-168.2 18.9-200.33 12.22-23.32-5-39.7-13.34-44.1-23.9-1.9-5.55-1.26-11.1 2.52-17.2 6.93-11.13 36.53-12.24 65.5-13.35 25.84-1.1 49.77-1.66 58.6-9.43 9.44-7.78 12.6-30.56 15.74-55 3.15-23.9 6.3-49.45 16.38-56.12 12.6-9.45 55.43-18.9 84.4-18.9zm-199.7 195z" stroke-width="1.01" fill="#231f20"/><path d="M347.56 362.24l78.74-13.9c.63 0 1.26-.54 1.26-1.1 0-1.1-.63-1.1-1.26-1.1L347.56 360c-.63 0-1.26.56-1.26 1.1 0 .57.63 1.12 1.26 1.12z" stroke-width="1.01" fill="#d1d3d4"/><path d="M120.8 522.25h2.5c0-.55-7.55-71.67 17-102.78l-1.87-1.67c-10.7 13.9-17 35.56-18.27 64.45-.63 14.45-.63 26.1.63 40z" stroke-width="1.01" fill="#231f20"/><path d="M129.6 531.14c0-.55 0-1.1-.62-2.22-5.67-36.67 4.4-53.9 13.22-62.23l-1.26-1.67c-10.07 8.33-20.15 26.1-14.48 64.45.63.55.63 1.66.63 1.66z" stroke-width="1.01" fill="#231f20"/><path d="M142.2 451.14c1.9-1.1 3.78-1.67 6.3-1.67 4.4-1.1 8.2 0 11.34 2.78.63 1.1 1.9 2.22.63 3.33 0 0-.63.56-1.26.56-3.14 1.1-5.66 3.33-6.92 6.67 1.9-1.1 3.15-2.77 5.04-3.88 1.9-1.67 3.78-2.23 5.67-2.23 2.5.55 4.4 1.66 5.66 3.88 1.9 1.67 3.15 3.34 4.4 5.56.64 2.22 1.27 4.44.64 6.67-2.52-.55-4.4-.55-6.93 0-1.9 0-3.15.56-4.4 1.67-.64 0-.64.56-.64 1.1 0 1.13.63 1.68 1.26 2.24h3.14c1.9-.55 3.78-1.1 5.67-1.1h2.53c1.9 1.1 2.52 3.33 2.52 5.55 0 .56-.63 1.1-1.26 1.67-.64 1.1-2.53.55-3.16 0-2.52-1.1-4.4-1.1-6.93-1.1h-.62c-.63 0-.63 1.1 0 1.1v.55c.63 0 .63.56 1.26.56 1.9.55 3.78 1.1 5.67 1.1.64.57 1.9.57 2.53 1.68v1.12c0 3.33-.63 6.67-2.52 9.44-.62.56-.62.56-1.25 1.1-.63.57-1.26.57-1.9.57-6.3.56-11.96 0-17.63-2.22 0-.55 0-.55-.63-.55 0-.55.62-1.1.62-1.66 1.9-2.24 1.9-5.57 1.26-8.35 0-.55-.63-1.1-.63-1.67-.63-.55-1.9 0-2.52.56-.63.56-.63 1.1-.63 2.22-.63 2.78 0 5.56.63 8.34-3.15-.56-5.67-1.1-8.2-2.78-1.87-.56-3.76-1.67-5.65-2.78-1.9-1.67-3.15-3.33-3.78-6.1v-1.12l.63-.56c2.52-1.66 4.4-3.9 5.67-6.66.63-.56.63-1.67 0-1.67h-.63c-3.15.55-4.4 3.9-6.93 5.55-.63.56-.63.56-1.26.56 0 0-.63 0-.63-.56-1.26-1.1-1.9-2.22-1.9-3.33-.62-2.78-.62-5.55.64-8.33.62-2.78 3.14-4.45 5.66-5.56h3.78c.63 0 3.15 1.1 3.15.56.6 0-.64-2.23-1.27-2.78-1.26-3.33.63-8.33 3.77-10zM105.04 428.9c4.4 0 7.56 1.68 10.08 5 1.26 2.8 1.9 5.57 1.26 8.9 0 2.78-.63 5.56-1.9 8.34-1.88-3.9-5.03-5.56-9.44-6.1-3.78-.57.63 3.32 1.26 4.43 2.52 2.22 4.4 5 6.93 7.78.63.56.63 1.67 1.26 2.22 0 1.1-.64 2.22-1.27 2.78-1.26 3.9-3.78 7.22-6.93 9.45-1.26 1.1-2.52 1.1-3.15.55-.63-.55-1.26-.55-1.26-1.67-1.27-2.22-2.53-4.44-4.42-6.66-.63-.56-1.26-1.1-1.9-.56-.62.56-.62 1.1-.62 1.67l.63 5.55c.62 1.67.62 3.34 0 5.56-1.27 3.33-5.68 5-8.83 6.1h-3.15c-1.9-1.1-3.15-3.32-3.15-5-.63-2.77-1.26-5.54-3.15-7.77-.63 3.9-1.26 7.23-3.15 10.56-1.26 1.67-2.52 2.78-3.78 3.9-1.9 1.1-3.16 2.2-5.68 2.2-3.15.57-6.3 1.12-9.44.57-2.52 0-4.4 0-6.93-.56-1.9-.56-3.78-2.22-5.04-3.9-1.88-3.88-.62-8.32 1.9-11.1 2.52-3.33 6.3-5.56 8.82-8.33-3.78.56-6.3 2.23-8.82 4.45-.63.56-1.9 1.1-2.52 1.1-.63 0-.63-.54-1.26-.54-3.78-3.88.63-10.55 2.52-13.88 1.26-2.78 3.15-4.45 5.67-5.56 1.27-.56 2.53-.56 4.42 0 1.9 0 13.22 5 8.18-1.1-2.5-3.34-5.66-5-10.07-4.46-1.9 0-4.4 1.67-4.4-2.22 0-1.1.62-2.22 1.25-3.33 1.9-2.22 3.15-4.45 5.04-6.67.63-.55.63-.55 1.9-1.1.62 0 1.25 0 1.88.55 4.4 2.77 8.8 4.44 14.48 5.55.63 0 2.52-.55 2.52-1.67 0-.54-.63-.54-.63-1.1-3.15-2.22-8.2-1.1-11.34-3.33-.63-.56-1.26-1.67-1.9-2.78 0-1.67 1.9-2.8 3.16-3.9 3.14-3.33 6.92-5 11.33-5.55 6.3-.56 12.6 3.9 16.38 8.33 1.9 1.67 2.53 6.1 5.05 5.56 1.26 0 2.52-.56 3.78-1.67 1.9 0 3.15-.56 4.4-.56zM136.54 395.02c0-2.22 1.26-4.44 3.15-6.1 3.13-3.34 8.17-3.34 11.95-2.8 3.78 1.13 6.93 1.68 10.08 2.8 3.15 1.1 3.78 1.66 1.26 4.44-1.9 1.66-7.57 8.33-5.05 11.1 2.52 3.34 6.3-4.44 8.2-6.1 1.88-1.67 4.4-2.78 7.55-3.34 2.52.56 5.04 1.67 6.93 3.9 1.9 1.66 3.15 3.33 5.04 5 .63.55.63.55.63 1.1.63 1.67-1.26 2.23-2.52 2.23-4.4 1.1-8.82 3.33-10.08 7.22 4.4 1.1 8.2-3.33 12.6-2.78 3.78.55 6.3 2.77 6.93 6.1 1.26 2.78 1.9 5.56 1.26 8.9-3.8-1.67-7.57-1.67-11.35-1.12-.63 0-1.26 0-1.26.56-.64.55 0 1.66.62 2.22h8.82c1.26 0 1.9 0 2.52.55 0 .57.63 1.13.63 1.68.62 3.33.62 6.67 0 10 0 2.22-.64 3.9-2.53 5.56-.63.55-1.9 1.1-3.15 1.66-3.78.56-7.56 1.12-11.34 1.12 1.9-2.23 2.52-5 1.26-7.78-1.26-3.34-3.78-1.67-4.4 1.66 0 1.12.62 2.78.62 4.45v.55l-.63.56c-1.9 1.1-4.4 1.1-6.3.56-.63 0-1.26 0-1.9-.56-1.25-1.67-1.25-3.33-.62-5l.64-8.9v-1.1c-.63-.56-1.26 0-1.9.55-1.88 1.68-2.5 3.9-2.5 6.13 0 1.66.62 2.77.62 4.44 0 1.1-.63 2.78-1.26 3.33-1.26.56-2.52 1.12-3.78.56-1.9-.56-3.15-1.1-4.4-2.22-1.27-1.67-1.27-3.34-.64-5.56 0-1.66.63-3.33.63-5 0-3.9-3.77-8.9-4.4-2.22 0 1.67.63 3.9.63 6.1v.57c-.63.55-.63.55-1.26.55-3.15.56-5.67 0-8.18-1.66-1.9-.56-3.8-1.67-5.05-3.34-.63-1.67-1.26-2.78-1.9-4.44-3.14-6.1-7.55-11.1-2.5-17.78 1.88-2.22 5.66-2.78 7.55-5 1.9-2.78-1.26-7.22-1.26-10.56-.63-1.1-.63-1.67 0-2.78z" stroke-width="1.01" fill="#231f20"/><path d="M153.54 515.03H91.8l4.42 46.67c1.26 7.22 6.93 12.78 13.86 12.78h25.2c6.92 0 13.22-5.56 13.85-12.78z" stroke-width="1.01" fill="#fff"/><path d="M110.08 575.6h25.2c7.55 0 14.48-6.12 15.1-13.9l5.05-46.67-.63-.55c0-.56-.63-.56-.63-.56H91.8c-.62 0-.62 0-1.25.56v.55l5.04 46.67c.62 7.78 6.92 13.9 14.48 13.9zm42.2-59.46l-4.4 45.56c-.64 6.67-6.3 11.1-12.6 11.1h-25.2c-6.3 0-11.97-4.43-12.6-11.1l-4.4-45.56z" stroke-width="1.01" fill="#231f20"/><path d="M113.86 516.14c0-.55 5.04-45.56-17-81.1l-1.9 1.1c21.42 35 16.38 78.9 16.38 79.45z" stroke-width="1.01" fill="#231f20"/><path d="M170.55 431.14c.63 0 .63 0 .63-.56.63 0 .63-1.1 0-1.67-12.6-13.32-32.75-21.65-33.38-21.65-.63-.56-1.26 0-1.9.55 0 .56.64 1.1 1.27 1.67 0 0 20.15 8.33 32.75 21.1 0 .57 0 .57.63.57zM161.73 493.36c.63 0 1.26-.55 1.26-1.1v-.56c-5.05-9.45-10.1-16.67-17.65-23.9 0-.55-.63-.55-1.26 0-.64.56-.64 1.12 0 1.67 6.92 7.23 11.96 14.45 17 23.34l.63.56zM58.43 476.14l.63-.56c.63-1.1 15.1-22.22 31.5-34.44.62-.56.62-1.1 0-1.67 0-.55-.64-.55-1.27-.55-17.02 12.77-30.24 32.78-32.13 35 0 .55 0 1.66.63 1.66 0 .56 0 .56.63.56zM212.76 52.22H64.72v103.9h148.04V52.22z" stroke-width="1.01" fill="#fff"/><path d="M64.72 157.23h148.04c.63 0 1.26-.55 1.26-1.1V52.22c0-.56-.63-1.12-1.26-1.12H64.72c-.63 0-1.26.57-1.26 1.12v103.9c0 .56.63 1.1 1.26 1.1zM211.5 155H65.98V53.35H211.5z" stroke-width="1.01" fill="#d1d3d4"/><path d="M117 255c.64 0 1.27-.54 1.27-1.1l6.3-38.9 10.08 4.46c.63.55 1.9 0 1.9-.56 0-.55 0-1.1-.64-1.67l-11.96-5h-1.26l-.63.56-6.3 40.55c0 .55.63 1.1 1.26 1.66z" stroke-width="1.01" fill="#231f20"/><path d="M96.85 296.68h30.24l1.88-65.56H94.96l1.9 65.56z" stroke-width="1.01" fill="#fff"/><path d="M96.85 297.8h30.24c.62 0 1.25-.56 1.25-1.12l1.9-65.56c0-.55 0-.55-.64-1.1l-.62-.56H94.96c-.63.55-1.26 1.1-1.26 1.66l1.9 65.56c0 .56.62 1.12 1.25 1.12zm28.98-2.23H97.48l-1.26-63.33h31.5z" stroke-width="1.01" fill="#231f20"/><path d="M132.13 224.46H91.8v6.66h40.33v-6.66z" stroke-width="1.01" fill="#fff"/><path d="M91.8 232.24h40.33c.63 0 1.26-.56 1.26-1.12v-6.66c0-1.1-.64-1.67-1.27-1.67H91.8c-.62 0-1.25.55-1.25 1.66v6.66c0 .56.63 1.12 1.26 1.12zm39.07-2.78h-37.8v-3.9h37.8z" stroke-width="1.01" fill="#231f20"/><path d="M111.34 274.46c8.2.56 15.12-5 15.75-13.33.62-7.78-5.68-15-13.24-15.56-8.2-1.1-15.12 5-15.75 13.33 0 0-.62.56-.62 1.12 0 7.77 5.67 13.88 13.86 14.44zm0-26.67h1.26c6.3 0 11.97 5.55 11.97 12.22 0 6.66-5.04 12.22-11.97 12.22-6.93 0-12.6-5.56-12.6-12.22 0-6.67 5.04-11.67 11.34-12.23zM169.3 135.56c3.14 0 5.66-.55 8.8-1.66 3.8-1.12 6.94-2.23 10.72-4.45.63-.55 1.9-1.1 2.52-1.67 4.4-2.77 6.93-6.66 7.56-11.66.63-1.67 0-3.34-.63-5-1.26-2.23-3.15-3.34-5.67-3.9-1.26-.55-2.52-1.66-3.78-2.77-2.52-2.22-1.26-6.1-.63-10.56.62-.56.62-1.67 1.25-2.78 1.26-6.67-.63-12.78-5.04-17.78-4.4-5-10.7-7.78-18.26-7.23-9.45 1.13-16.38 6.13-20.16 12.8-3.15 6.66-3.15 13.88.63 20 1.9 2.22 2.53 4.44 2.53 6.66-.63 2.22-1.26 3.9-3.15 5-1.9 2.22-3.15 3.9-3.78 6.67-.63 3.9 2.52 7.78 8.2 11.67 5.66 4.44 11.96 6.1 18.9 6.66zm18.26-8.33c-3.15 2.22-6.3 3.33-10.08 4.44-10.7 3.34-18.27 0-25.83-5-5.04-3.33-6.93-6.1-6.93-8.9.63-2.2 1.9-3.88 3.15-5.54 1.9-1.67 3.15-3.9 3.78-6.67 0-2.78-.63-5-2.52-7.22-3.78-6.1-3.78-12.22-1.26-18.34 3.15-6.1 10.08-10 18.9-11.1 6.3-.56 11.97 1.66 15.75 6.1 3.78 4.45 5.67 10 4.4 15.56-.62 1.1-.62 2.22-.62 2.78-1.26 4.44-2.52 9.44.63 12.78 1.9 1.66 3.15 2.22 5.04 3.33 1.9.56 3.15 1.67 4.4 2.78.64 1.1.64 2.22 0 3.9-.62 4.43-3.14 7.77-6.92 10-.63.54-1.26 1.1-1.9 1.1z" stroke-width="1.01" fill="#d1d3d4"/><path d="M103.15 135c6.3 0 11.97-1.66 18.27-3.88l1.26-.56c5.04-2.78 11.34-2.78 16.38.56 2.5 1.66 5.03 2.22 8.18 2.78 6.93.55 13.23-1.67 17.64-7.23 3.78-4.44 5.67-8.9 6.93-14.44.64-6.67-2.5-12.78-8.18-15.56-5.67-2.22-11.97-.55-17.64 1.1-4.4 1.12-8.8 2.24-13.22 1.68-3.78-.56-6.3-1.67-10.08-3.33-1.9-1.12-3.78-1.67-5.67-2.78-10.07-2.78-28.97 0-35.9 8.33-4.4 4.45-5.67 10-4.4 16.1 2.5 7.8 7.55 13.35 15.74 15.57 3.15 1.1 6.93 1.67 10.7 1.67zm27.1-8.88h-.64c-3.14 0-5.66 1.1-8.18 2.22l-1.26.56c-8.82 3.88-17.64 4.44-27.1 2.22-6.92-2.22-11.96-7.22-13.85-13.9-1.25-5 0-10 3.8-13.88 6.3-7.22 24.56-10.56 33.38-7.78 1.9 1.1 3.78 1.67 5.67 2.78 3.78 1.67 6.93 2.78 10.7 3.33 5.05.56 8.82 0 13.86-1.66 5.68-1.66 10.72-3.33 15.76-1.1 5.04 2.22 7.56 7.77 6.93 13.33-1.27 5-3.16 8.9-6.3 12.78-2.53 2.78-8.2 7.78-15.13 6.67-3.15-.55-5.67-1.1-8.18-2.77-3.16-1.67-6.3-2.78-9.46-2.78z" stroke-width="1.01" fill="#d1d3d4"/><path d="M106.3 116.67c3.78 0 6.3-1.1 8.82-3.9 1.26-1.1 2.52-2.2 3.78-2.76 1.9-1.1 3.78-1.1 5.67-1.66 3.78 0 6.93-1.67 9.45-4.45 2.52-3.34 3.78-7.23 2.52-11.67-.63-5.56-3.78-10-8.82-12.78-12.6-7.78-36.54 0-44.73 11.1-2.53 4.45-5.68 12.23 3.77 20 5.67 3.9 11.34 6.12 18.27 6.12zm8.82-37.78c4.4-.56 7.56.55 11.34 2.2 4.4 2.8 6.93 6.68 7.56 11.68 1.26 3.34 0 6.67-1.9 9.45-1.88 2.22-4.4 3.9-7.55 3.9-4.4 0-8.2 1.65-11.34 5-1.9 2.76-5.04 3.32-8.2 2.76-6.3 0-11.33-1.67-16.37-5.56-6.3-5-7.56-10.56-3.78-16.1 5.67-7.8 18.9-13.35 30.24-13.35z" stroke-width="1.01" fill="#d1d3d4"/><path d="M478.58 107.78s-7.56-6.66 0-15h12.6s-2.52 11.1 0 15z" stroke-width="1.01" fill="#231f20"/><path d="M478.58 108.9h12.6c.63 0 1.26 0 1.26-.56v-1.1c-1.9-3.35-.63-11.12 0-13.9v-1.1s-.63-.57-1.26-.57h-12.6l-.63.56c-2.52 2.22-3.78 5.55-3.78 8.9 0 2.76 1.26 5.54 3.78 7.76h.63zm10.7-2.23h-10.07c-1.88-1.66-2.5-3.33-2.5-5.55 0-2.78.62-5 2.5-6.67h10.72c-1.26 3.9-1.26 7.78-.63 12.22z" stroke-width="1.01" fill="#231f20"/><path d="M485.5 102.78c-.62-2.77.64-5.55 2.53-7.78 1.26-1.1 1.9-2.22 3.15-3.33 2.52-1.67 5.04-2.22 7.56-2.78 6.3-1.67 13.23.55 18.9.55 6.93 0 13.23-1.1 19.53-3.9 1.9-.55 3.77-1.66 5.03-3.32 1.9 8.9 1.26 18.9-3.77 26.1-4.4 6.12-10.08 9.45-17 11.68-9.46 3.9-19.54 2.23-27.1-3.88-3.78-2.78-6.3-6.1-8.2-10 0-1.1-.62-2.23-.62-3.34z" stroke-width="1.01" fill="#fff"/><path d="M510.7 123.34c4.42 0 7.57-.56 11.35-2.22 6.93-2.22 12.6-6.1 17.64-12.23 4.4-6.67 5.65-15.56 3.76-26.67 0-.56-.63-1.12-.63-1.12-.63 0-1.26 0-1.26.57-1.88 1.67-3.14 2.78-5.03 3.33-6.3 2.23-11.97 3.34-18.9 2.78-1.9 0-3.78 0-6.3-.55-4.4-.56-8.2-.56-12.6 0-3.15.55-5.67 1.66-8.2 3.33-1.25 1.1-2.5 2.22-3.14 3.33-2.52 2.77-3.78 5.55-3.15 8.88 0 1.1.63 2.23.63 3.34 1.9 4.44 4.4 7.77 8.2 11.1 5.66 3.9 11.33 6.12 17.63 6.12zM541.58 85c1.26 9.45 0 16.67-3.77 22.78-4.4 5.56-10.08 8.9-16.38 11.12-9.45 3.88-18.9 2.22-26.46-3.9-3.78-2.22-5.67-5.55-7.56-9.44 0-1.1-.63-1.67-.63-2.78-.63-2.77.63-5 2.52-7.22.62-1.1 1.88-1.67 3.14-2.78 1.9-1.1 4.4-2.22 6.93-2.78 4.4-.55 8.2-.55 11.97 0 2.52.56 4.4.56 6.93.56 6.93 0 12.6-1.1 19.53-3.33 1.26-.56 2.5-1.67 3.77-2.23zm-56.06 17.78z" stroke-width="1.01" fill="#231f20"/><path d="M334.96 39.45h-103.3v68.33h103.3V39.45z" stroke-width="1.01" fill="#fff"/><path d="M231.65 108.9h103.3c.64 0 1.27-.56 1.27-1.12V39.45c0-1.12-.63-1.67-1.26-1.67h-103.3c-.64 0-1.27.55-1.27 1.67v68.33c0 .56.62 1.1 1.25 1.1zm102.05-2.23H232.28v-66.1H333.7z" stroke-width="1.01" fill="#d1d3d4"/><path d="M334.96 107.78h-103.3v13.34h103.3v-13.34z" stroke-width="1.01" fill="#fff"/><path d="M231.65 122.23h103.3c.64 0 1.27-.56 1.27-1.1v-13.35c0-.55-.63-1.1-1.26-1.1h-103.3c-.64 0-1.27.55-1.27 1.1v13.34c0 .55.62 1.1 1.25 1.1zM333.7 120H232.28v-11.1H333.7zM323 91.67c.62 0 1.25-.55 1.25-1.1V90c-1.26-1.66-29.6-36.1-55.43-33.9-10.7.57-17.64 6.12-19.53 14.46-1.27 7.22 2.5 14.44 9.44 17.78 6.93 3.33 13.86 3.33 18.9 0 3.78-3.34 5.67-8.34 5.04-13.9-.63-5-3.15-8.33-8.2-10-4.4-1.1-8.8 0-11.96 3.9-1.9 1.66-1.9 3.9-1.26 5.55 1.9 3.88 4.4 5.55 6.93 5.55 3.77 0 6.92-4.45 6.92-4.45 0-.55 0-1.1-.63-1.66-.64-.56-1.27 0-1.27.55-.63.55-3.15 3.33-5.04 3.33-2.53 0-3.8-2.23-4.42-4.45-.63-1.1-.63-2.22.63-3.33 2.53-2.22 6.3-3.34 9.46-2.78 3.78 1.1 6.3 4.44 6.3 7.78.63 4.44-.63 8.9-4.4 11.67-3.8 3.33-9.46 3.33-16.4 0-5.66-2.78-8.8-8.9-7.55-15 1.27-7.23 7.57-12.23 17.02-12.78 24.57-2.23 52.9 32.78 53.54 32.78 0 .55.63.55.63.55zM282.68 171.12h39.68c.63 0 1.26-.55 1.26-1.1v-31.68c0-.55-.63-1.1-1.26-1.1h-39.68c-.63 0-1.26.55-1.26 1.1V170c0 .57.63 1.12 1.26 1.12zm38.42-2.22h-37.16v-29.45h37.16z" stroke-width="1.01" fill="#d1d3d4"/><path d="M302.83 143.9c.63 0 1.26-.56 1.26-1.1v-7.24c0-1.1-.64-1.66-1.27-1.66s-1.26.55-1.26 1.66v7.23c0 .54.63 1.1 1.26 1.1z" stroke-width="1.01" fill="#d1d3d4"/></g></svg>